#!OML:ASF H:\Male1\Project 1\Capture day 1\Session 1\Male1.ASF
:FULLY-SPECIFIED
:DEGREES
817
root 15.3277 14.861 -2.82034 -167.823 -99.8763 164.778
lowerback 9.9324 -1.42895 2.43585
upperback 8.40991 -2.0667 -1.1479
thorax 3.08541 -1.04134 -2.41852
lowerneck -6.24425 0.894496 4.58312
upperneck 7.41825 1.21562 -5.7764
head 3.63659 0.482498 -2.70221
rclavicle -3.63776e-014 0
rhumerus -60.1638 19.1505 -93.5204
rradius 107.266
rwrist -17.5836
rhand -26.3466 17.5932
rfingers 7.12502
rthumb 0.21102 -12.3864
lclavicle -3.63776e-014 0
lhumerus -30.8899 24.532 74.5268
lradius 37.264
lwrist 2.48656
lhand -24.0835 3.87006
lfingers 7.12502
lthumb 2.39673 33.8363
rfemur -9.02326 9.43575 30.2467
rtibia 36.5054
rfoot -44.6147 -29.2983
rtoes -2.62319
lfemur -31.4233 -14.3446 -10.3576
ltibia 54.6424
lfoot -15.6918 10.6173
ltoes -12.9879
818
root 15.3324 14.871 -2.74492 -166.275 -99.5264 163.551
lowerback 9.60022 -1.5774 2.76934
upperback 8.38539 -2.24725 -1.0763
thorax 3.22357 -1.11451 -2.52758
lowerneck -6.42652 1.06394 4.76026
upperneck 7.12235 1.44355 -6.18089
head 3.59437 0.582837 -2.86184
rclavicle -1.80894e-014 2.38542e-015
rhumerus -59.7972 19.3199 -93.5645
rradius 107.275
rwrist -17.2861
rhand -26.3058 17.5332
rfingers 7.12502
rthumb 0.250373 -12.4464
lclavicle -1.80894e-014 2.38542e-015
lhumerus -30.6022 22.5574 75.6507
lradius 39.3813
lwrist 3.25762
lhand -23.6125 2.98049
lfingers 7.12502
lthumb 2.85158 32.9412
rfemur -9.38887 9.65242 29.9765
rtibia 36.6573
rfoot -44.5772 -28.9858
rtoes -3.89387
lfemur -31.056 -14.7072 -9.44839
ltibia 54.1385
lfoot -15.8957 10.6858
ltoes -11.9459
819
root 15.3304 14.8827 -2.67816 -166.668 -98.8156 164.153
lowerback 9.6864 -1.58121 2.47591
upperback 8.2006 -2.25978 -1.05654
thorax 2.98801 -1.13734 -2.33397
lowerneck -6.58084 1.2267 4.8695
upperneck 7.13189 1.67372 -6.53253
head 3.65303 0.682364 -2.99564
rclavicle 1.55052e-014 -1.11319e-014
rhumerus -59.7376 19.5606 -93.6849
rradius 107.314
rwrist -17.0708
rhand -26.3541 17.574
rfingers 7.12502
rthumb 0.20375 -12.4056
lclavicle 1.55052e-014 -1.11319e-014
lhumerus -30.6832 20.7 76.4879
lradius 41.4796
lwrist 3.53804
lhand -22.9684 3.08682
lfingers 7.12502
lthumb 3.47358 33.0383
rfemur -9.56129 10.2962 29.4179
rtibia 36.7493
rfoot -44.6644 -28.7694
rtoes -5.23173
lfemur -30.4528 -14.7903 -9.07762
ltibia 53.5186
lfoot -16.1671 10.7768
ltoes -11.5574
820
root 15.3277 14.899 -2.60724 -165.995 -98.1953 163.571
lowerback 9.78273 -1.57179 2.45119
upperback 8.16654 -2.24885 -1.01155
thorax 2.90233 -1.13666 -2.27028
lowerneck -6.75606 1.33401 5.02433
upperneck 7.26157 1.84882 -7.10816
head 3.37537 0.726077 -2.89079
rclavicle 1.47101e-014 -1.59028e-015
rhumerus -59.3642 19.7392 -93.7122
rradius 107.281
rwrist -17.024
rhand -26.5096 17.655
rfingers 7.12502
rthumb 0.0535273 -12.3247
lclavicle 1.47101e-014 -1.59028e-015
lhumerus -30.5615 19.1434 77.2231
lradius 43.5885
lwrist 3.05785
lhand -22.1619 3.40252
lfingers 7.12502
lthumb 4.25241 33.3398
rfemur -9.54372 10.7082 29.0484
rtibia 36.666
rfoot -44.4738 -28.6893
rtoes -6.60427
lfemur -29.9374 -14.8272 -8.64815
ltibia 53.025
lfoot -16.3682 10.902
ltoes -12.3514
821
root 15.321 14.9162 -2.5372 -164.332 -97.5588 162.112
lowerback 9.68007 -1.54982 2.43191
upperback 8.1587 -2.22635 -0.895949
thorax 2.95612 -1.12905 -2.14429
lowerneck -6.9054 1.46596 5.1549
upperneck 6.98185 2.0258 -7.49288
head 3.33242 0.799722 -3.01994
rclavicle 1.59028e-015 8.34896e-015
rhumerus -58.8405 20.0248 -93.5628
rradius 107.192
rwrist -17.0846
rhand -26.4863 17.48
rfingers 7.12502
rthumb 0.0760882 -12.4997
lclavicle 1.59028e-015 8.34896e-015
lhumerus -30.4361 17.7079 77.9695
lradius 45.7781
lwrist 2.56381
lhand -21.4639 3.5023
lfingers 7.12502
lthumb 4.92643 33.425
rfemur -9.69525 11.1718 28.7557
rtibia 36.6404
rfoot -44.267 -28.5794
rtoes -6.59046
lfemur -29.5806 -14.6889 -8.15799
ltibia 52.4538
lfoot -16.5936 10.9372
ltoes -12.7043
822
root 15.3128 14.9197 -2.46826 -163.616 -96.9363 161.482
lowerback 9.76155 -1.53838 2.24952
upperback 8.12771 -2.22398 -0.827887
thorax 2.88657 -1.13994 -1.96835
lowerneck -7.00952 1.58376 5.03628
upperneck 6.90039 2.1951 -7.58308
head 3.33617 0.874664 -3.01875
rclavicle 1.45113e-014 2.78299e-015
rhumerus -58.3762 20.3426 -93.4031
rradius 107.125
rwrist -17.1008
rhand -26.4748 17.2185
rfingers 7.12502
rthumb 0.0871479 -12.7612
lclavicle 1.45113e-014 2.78299e-015
lhumerus -30.4321 16.0331 78.6301
lradius 47.9179
lwrist 2.46811
lhand -21.4971 3.64775
lfingers 7.12502
lthumb 4.89433 33.5712
rfemur -9.74889 11.528 28.3486
rtibia 36.6646
rfoot -44.1086 -28.431
rtoes -6.65475
lfemur -29.0236 -14.5877 -7.87284
ltibia 51.8369
lfoot -17.115 10.649
ltoes -11.6921
823
root 15.3036 14.9225 -2.39504 -164.051 -96.2483 162.035
lowerback 9.90449 -1.49341 2.00277
upperback 8.05165 -2.17671 -0.864343
thorax 2.73595 -1.12859 -1.86513
lowerneck -7.22336 1.67617 5.05603
upperneck 7.03238 2.32355 -7.67524
head 3.42101 0.928478 -3.0431
rclavicle -1.27222e-014 2.26615e-014
rhumerus -57.9526 20.5939 -93.315
rradius 107.098
rwrist -16.8531
rhand -26.6294 16.9428
rfingers 7.12502
rthumb -0.0621802 -13.0369
lclavicle -1.27222e-014 2.26615e-014
lhumerus -30.4897 14.1086 79.1503
lradius 49.9848
lwrist 2.77424
lhand -22.123 2.76648
lfingers 7.12502
lthumb 4.29003 32.703
rfemur -9.86646 11.6273 27.7003
rtibia 36.7182
rfoot -43.7549 -28.3319
rtoes -8.08877
lfemur -28.5302 -14.6313 -7.80642
ltibia 51.1913
lfoot -17.6956 10.4237
ltoes -10.7058
824
root 15.2926 14.9315 -2.3232 -164.949 -95.5593 163.141
lowerback 9.99308 -1.43848 1.67536
upperback 7.99564 -2.1246 -0.910384
thorax 2.63829 -1.11699 -1.72939
lowerneck -7.49752 1.76924 5.18437
upperneck 7.07073 2.4462 -7.9062
head 3.49057 0.97565 -3.12762
rclavicle 6.36111e-015 8.74653e-015
rhumerus -57.4424 20.8152 -93.1871
rradius 107.088
rwrist -16.5078
rhand -26.6117 16.7515
rfingers 7.12502
rthumb -0.0450743 -13.2283
lclavicle 6.36111e-015 8.74653e-015
lhumerus -30.6133 12.2747 79.5493
lradius 52.268
lwrist 3.55507
lhand -22.104 3.39836
lfingers 7.12502
lthumb 4.30835 33.3345
rfemur -10.0389 11.5717 26.9666
rtibia 36.6426
rfoot -43.1926 -28.2807
rtoes -9.81398
lfemur -28.2648 -14.5418 -7.84591
ltibia 50.5219
lfoot -17.8358 10.6887
ltoes -12.8334
825
root 15.2721 14.9361 -2.25041 -161.298 -94.9974 159.634
lowerback 9.97067 -1.37873 1.7809
upperback 8.0128 -2.04247 -0.877649
thorax 2.67043 -1.07314 -1.76211
lowerneck -7.76098 1.87706 5.30828
upperneck 7.05123 2.57616 -8.00236
head 3.54006 1.03388 -3.16909
rclavicle -2.52457e-014 1.86858e-014
rhumerus -56.8531 20.9584 -93.047
rradius 107.095
rwrist -16.4163
rhand -26.5397 16.8483
rfingers 7.12502
rthumb 0.0245305 -13.1314
lclavicle -2.52457e-014 1.86858e-014
lhumerus -30.8705 10.5146 79.7975
lradius 54.9491
lwrist 4.31786
lhand -21.9 4.39538
lfingers 7.12502
lthumb 4.50535 34.3275
rfemur -10.1055 11.5385 26.7358
rtibia 36.534
rfoot -42.657 -28.2417
rtoes -11.2278
lfemur -27.9698 -14.2816 -7.45723
ltibia 49.8768
lfoot -17.8013 11.0747
ltoes -15.9266
826
root 15.2423 14.9595 -2.17536 -154.8 -94.6441 153.248
lowerback 9.97657 -1.36294 2.15307
upperback 7.99768 -1.99701 -0.842393
thorax 2.645 -1.03632 -1.9372
lowerneck -7.7877 2.03882 5.4863
upperneck 6.95647 2.76745 -7.97195
head 3.53099 1.13611 -3.17766
rclavicle -1.39149e-015 6.75868e-015
rhumerus -56.3043 21.1518 -93.0277
rradius 107.098
rwrist -16.5395
rhand -26.7206 16.9433
rfingers 7.12502
rthumb -0.150263 -13.0364
lclavicle -1.39149e-015 6.75868e-015
lhumerus -31.303 8.85927 79.8463
lradius 57.7387
lwrist 4.58831
lhand -21.557 4.81056
lfingers 7.12502
lthumb 4.83649 34.7354
rfemur -10.0117 11.5695 26.7664
rtibia 36.314
rfoot -42.2078 -28.3124
rtoes -12.3558
lfemur -28.0548 -14.6702 -6.59218
ltibia 49.1886
lfoot -18.1461 10.7526
ltoes -12.2277
827
root 15.2242 14.9586 -2.10202 -153.427 -94.4387 152.144
lowerback 10.0437 -1.45726 2.08052
upperback 7.90032 -2.11988 -0.878096
thorax 2.5001 -1.10078 -1.91955
lowerneck -7.84135 2.22425 5.64333
upperneck 6.88786 2.99484 -7.96644
head 3.53718 1.25327 -3.18816
rclavicle 1.13307e-014 -8.34896e-015
rhumerus -55.7677 21.4967 -93.0395
rradius 107.115
rwrist -16.583
rhand -26.8426 16.8336
rfingers 7.12502
rthumb -0.268067 -13.146
lclavicle 1.13307e-014 -8.34896e-015
lhumerus -31.7488 7.64629 79.7849
lradius 60.3826
lwrist 4.40207
lhand -20.9552 4.27518
lfingers 7.12502
lthumb 5.41757 34.1859
rfemur -10.1706 11.5193 26.3669
rtibia 36.1588
rfoot -41.7669 -28.4147
rtoes -13.0109
lfemur -28.138 -14.9535 -6.24901
ltibia 48.4452
lfoot -18.0517 11.1246
ltoes -13.8602
828
root 15.1906 14.958 -2.02416 -149.734 -93.8165 148.619
lowerback 9.9956 -1.39804 1.75607
upperback 7.89865 -2.06786 -0.859502
thorax 2.53636 -1.08919 -1.72404
lowerneck -8.0074 2.44131 5.58069
upperneck 6.85604 3.27958 -7.88154
head 3.57267 1.3935 -3.13367
rclavicle -2.76311e-014 -1.59028e-015
rhumerus -55.1949 21.9905 -92.8713
rradius 107.169
rwrist -16.3708
rhand -26.7746 16.5831
rfingers 7.12502
rthumb -0.202347 -13.3965
lclavicle -2.76311e-014 -1.59028e-015
lhumerus -32.0739 6.87361 79.8043
lradius 62.9221
lwrist 4.06205
lhand -20.3604 3.97491
lfingers 7.12502
lthumb 5.99189 33.8702
rfemur -10.1885 11.6676 25.9067
rtibia 36.023
rfoot -41.1924 -28.3596
rtoes -13.8494
lfemur -27.8521 -15.116 -6.01213
ltibia 47.5988
lfoot -18.2398 11.6132
ltoes -14.7881
829
root 15.1555 14.9642 -1.94525 -145.633 -93.3872 144.677
lowerback 9.59035 -1.34424 1.61746
upperback 8.13493 -2.02572 -0.947167
thorax 3.01001 -1.07026 -1.75819
lowerneck -8.07787 2.59769 5.69801
upperneck 6.52416 3.44562 -7.71034
head 3.49461 1.49032 -3.08937
rclavicle 1.39149e-015 1.03368e-014
rhumerus -54.2153 22.233 -92.6965
rradius 107.21
rwrist -15.9447
rhand -26.7679 16.5982
rfingers 7.12502
rthumb -0.195922 -13.3815
lclavicle 1.39149e-015 1.03368e-014
lhumerus -31.9554 5.9705 79.7312
lradius 65.4236
lwrist 3.98154
lhand -20.0811 4.17891
lfingers 7.12502
lthumb 6.26152 34.0664
rfemur -10.1866 11.7052 25.495
rtibia 35.949
rfoot -40.9367 -28.2427
rtoes -14.7185
lfemur -27.7744 -15.65 -5.61955
ltibia 46.7409
lfoot -18.5852 11.9187
ltoes -13.6397
830
root 15.1192 14.9725 -1.8591 -146.033 -93.093 145.387
lowerback 9.37096 -1.35012 1.27122
upperback 8.16814 -2.05769 -1.03109
thorax 3.17047 -1.09794 -1.65648
lowerneck -8.22286 2.74409 5.97073
upperneck 6.35796 3.59602 -7.67245
head 3.48281 1.57321 -3.11197
rclavicle -3.37934e-015 -1.51076e-014
rhumerus -53.4999 22.4255 -92.5495
rradius 107.349
rwrist -15.4595
rhand -26.7699 16.8796
rfingers 7.12502
rthumb -0.197824 -13.1001
lclavicle -3.37934e-015 -1.51076e-014
lhumerus -32.0643 5.05381 79.7527
lradius 68.0099
lwrist 4.49198
lhand -20.0172 4.19341
lfingers 7.12502
lthumb 6.3232 34.079
rfemur -10.3116 11.0159 24.7321
rtibia 35.8138
rfoot -40.3441 -27.919
rtoes -16.1637
lfemur -27.9707 -16.4084 -5.3873
ltibia 45.8809
lfoot -18.8636 12.5142
ltoes -13.2904
